<svg width="385" height="410" viewBox="0 0 350 350" fill="none" xmlns="http://www.w3.org/2000/svg">
    <g id="dramate-logo">
        <path id="r-mask" d="M163.674 35.355C222.726 86.969 293.478 103.994 369.761 84.945C369.761 84.945 354.927 254.011 207.816 304.931C99.973 192.661 163.674 35.355 163.674 35.355Z" fill="#E65372"/>
        <path id="r-mask-m" d="M302.047 224.016L295.977 222.548L306.848 177.578C309.455 166.796 309.77 158.503 307.791 152.71C305.82 146.934 301.559 143.239 295.029 141.661C288.006 139.963 281.3 140.896 274.922 144.467C268.544 148.038 263.471 153.301 259.688 160.28L247.469 210.822L241.387 209.351L252.258 164.381C254.92 153.367 255.287 145.032 253.34 139.371C251.399 133.708 247.149 130.085 240.596 128.502C233.684 126.83 227.041 127.739 220.67 131.217C214.313 134.696 209.121 139.945 205.125 146.971L192.879 197.625L186.81 196.157L206.39 115.161L212.46 116.629L207.606 136.698C210.698 130.684 215.501 126.423 221.995 123.883C228.491 121.342 234.979 120.856 241.431 122.415C248.369 124.092 253.601 127.669 257.132 133.147C260.659 138.626 261.862 144.566 260.722 150.959C264.882 144.379 270.134 139.766 276.492 137.138C282.846 134.508 289.504 134.036 296.467 135.719C300.813 136.77 304.393 138.46 307.194 140.799C310.01 143.132 312.096 146.138 313.467 149.809C314.85 153.483 315.467 157.756 315.326 162.644C315.187 167.532 314.381 172.989 312.918 179.045L302.047 224.016Z" fill="white"/>
        <path id="l-mask" d="M13.903 27.873C87.018 56.255 159.334 48.131 224.545 4.20901C224.545 4.20901 268.258 168.199 147.334 266.235C7.668 197.475 13.903 27.873 13.903 27.873Z" fill="#282426"/>
        <path id="l-mask-d" d="M71.788 159.312C70.78 150.064 71.655 141.601 74.413 133.909C77.174 126.233 81.456 119.944 87.262 115.044C93.071 110.157 100.011 107.269 108.083 106.389C114.228 105.719 120.046 106.518 125.537 108.785C131.026 111.052 135.366 114.511 138.556 119.162L132.833 66.656L167.175 62.913L177.418 156.897C177.773 160.152 178.501 162.359 179.603 163.518C180.705 164.679 182.473 165.249 184.91 165.225L188.062 194.145C182.289 195.995 177.534 197.121 173.799 197.528C168.014 198.158 163.318 197.574 159.707 195.772C156.097 193.971 153.567 190.893 152.117 186.541L151.019 183.187C148.396 189.325 144.458 194.023 139.204 197.276C133.95 200.532 128.19 202.5 121.925 203.182C115.418 203.891 109.294 203.356 103.554 201.59C97.812 199.805 92.688 196.981 88.179 193.083C83.671 189.2 80.005 184.373 77.186 178.629C74.361 172.87 72.564 166.437 71.788 159.312ZM143.415 162.068L141.634 145.725C140.259 143.177 138.528 140.99 136.437 139.16C134.348 137.329 132.097 135.96 129.679 135.05C127.263 134.138 124.852 133.824 122.443 134.087C119.911 134.362 117.651 135.143 115.655 136.41C113.66 137.68 111.98 139.326 110.616 141.364C109.251 143.387 108.281 145.657 107.702 148.19C107.124 150.721 106.986 153.374 107.29 156.159C107.605 159.052 108.341 161.607 109.498 163.829C110.655 166.051 112.168 167.912 114.04 169.416C115.908 170.903 118.039 171.998 120.431 172.681C122.82 173.35 125.402 173.542 128.172 173.241C129.861 173.057 131.405 172.691 132.807 172.126C134.208 171.562 135.531 170.822 136.773 169.926C138.016 169.03 139.205 167.908 140.337 166.551C141.47 165.191 142.496 163.706 143.415 162.068Z" fill="white"/>
    </g>
</svg>
